<svg xmlns="http://www.w3.org/2000/svg" viewBox="0 0 128 128"><rect width="128" height="128" rx="28" fill="#7fd0ff"/><path d="M14 58 L64 18 L114 58 Z" fill="#ff7f9f"/><rect x="24" y="56" width="80" height="62" rx="8" fill="#ffe0ea"/><g fill="#eef8ff" stroke="#a9d2f0" stroke-width="3"><circle cx="50" cy="86" r="14"/><circle cx="64" cy="78" r="15"/><circle cx="78" cy="86" r="14"/><ellipse cx="64" cy="92" rx="24" ry="14"/></g><g fill="#eef8ff"><circle cx="50" cy="86" r="12"/><circle cx="64" cy="78" r="13"/><circle cx="78" cy="86" r="12"/><ellipse cx="64" cy="92" rx="22" ry="12"/></g><ellipse cx="57" cy="86" rx="2.6" ry="3.6" fill="#3a2a3a"/><ellipse cx="71" cy="86" rx="2.6" ry="3.6" fill="#3a2a3a"/><ellipse cx="51" cy="93" rx="4" ry="2.4" fill="#ff9fb8"/><ellipse cx="77" cy="93" rx="4" ry="2.4" fill="#ff9fb8"/><path d="M61 93 q3 3 6 0" stroke="#3a2a3a" stroke-width="2" fill="none" stroke-linecap="round"/><path d="M98 20 l4 9 10 1 -8 6 3 10 -9 -6 -9 6 3 -10 -8 -6 10 -1z" fill="#ffd84a"/></svg>
